<svg width="123" height="34" viewBox="0 0 123 34" fill="none" xmlns="http://www.w3.org/2000/svg">
    <path fill-rule="evenodd" clip-rule="evenodd" d="M17.023 0a.476.476 0 01.459.475V.58c0 .285-.476 5.08-.476 5.08s-.449-4.795-.462-5.08V.475A.475.475 0 0117.002 0h.02z" fill="#80CFF4"/>
    <path fill-rule="evenodd" clip-rule="evenodd" d="M21.428.576a.475.475 0 01.348.583l-.028.1c-.1.317-1.984 5.552-1.984 5.552s.98-5.475 1.053-5.797l.028-.101a.475.475 0 01.583-.347v.01z" fill="#68C0EA"/>
    <path fill-rule="evenodd" clip-rule="evenodd" d="M25.535 2.277a.475.475 0 01.174.648l-.053.09c-.201.316-3.758 5.551-3.758 5.551s2.768-5.693 2.932-6.026l.052-.09a.475.475 0 01.653-.173z" fill="#F29229"/>
    <path fill-rule="evenodd" clip-rule="evenodd" d="M29.057 4.979a.474.474 0 010 .673l-.087.08-.24.218-.781.694-2.241 2.03-3.196 2.855 2.848-3.202 2.022-2.249.695-.78.219-.24.08-.086a.476.476 0 01.674 0l.007.007z" fill="#4FA6D3"/>
    <path fill-rule="evenodd" clip-rule="evenodd" d="M31.765 8.497a.475.475 0 01-.174.652l-1.612.843-3.304 1.717-4.686 2.429 4.447-2.841 3.126-1.999 1.553-.971a.476.476 0 01.653.173l-.003-.003z" fill="#3C8DBB"/>
    <path fill-rule="evenodd" clip-rule="evenodd" d="M33.464 12.597a.473.473 0 01-.347.583l-1.845.416-3.78.846-5.374 1.19 5.25-1.651 3.706-1.145 1.807-.562a.476.476 0 01.583.347v-.024z" fill="#3472A1"/>
    <path fill-rule="evenodd" clip-rule="evenodd" d="M28.8 17a.475.475 0 01-.475.475h-.104c-.428-.017-7.494-.475-7.494-.475s7.066-.465 7.494-.479h.104A.477.477 0 0128.8 17z" fill="#2E598A"/>
    <path fill-rule="evenodd" clip-rule="evenodd" d="M24.352 18.96a.476.476 0 01-.584.347l-.1-.028c-.185-.062-3.204-1.35-3.204-1.35s3.263.396 3.45.43l.1.029a.478.478 0 01.348.582l-.01-.01z" fill="#28436F"/>
    <path fill-rule="evenodd" clip-rule="evenodd" d="M2.278 8.496a.476.476 0 01.65-.17l.09.052c.073.06 1.195 1.239 1.195 1.239s-1.584-.378-1.67-.413l-.091-.052a.476.476 0 01-.174-.652v-.004z" fill="#CBE9F9"/>
    <path fill-rule="evenodd" clip-rule="evenodd" d="M4.984 4.979a.476.476 0 01.674 0l.073.073c.094.114 1.542 2.213 1.542 2.213S5.19 5.82 5.057 5.725l-.073-.073a.475.475 0 010-.673z" fill="#B7E1F7"/>
    <path fill-rule="evenodd" clip-rule="evenodd" d="M8.508 2.277a.476.476 0 01.653.173l.052.09c.087.18 1.365 3.313 1.365 3.313S8.494 3.182 8.386 3.016l-.048-.09a.475.475 0 01.173-.653l-.003.004z" fill="#A5DBF7"/>
    <path fill-rule="evenodd" clip-rule="evenodd" d="M12.614.576a.476.476 0 01.584.347l.028.1c.048.23.67 4.299.67 4.299s-1.508-3.816-1.584-4.063l-.028-.1a.475.475 0 01.348-.583h-.018z" fill="#93D5F6"/>
    <path fill-rule="evenodd" clip-rule="evenodd" d="M.566 12.722a.474.474 0 01.807-.355.475.475 0 11-.807.341v.014z" fill="#DBEFFA"/>
    <path fill-rule="evenodd" clip-rule="evenodd" d="M25.798 5.88a.476.476 0 010 .673l-.09.073c-.153.132-2.866 2.19-2.866 2.19s2.06-2.71 2.192-2.863l.073-.073a.476.476 0 01.674 0h.017z" fill="#EF7F26"/>
    <path fill-rule="evenodd" clip-rule="evenodd" d="M22.275 3.844a.477.477 0 01.348.583l-.028.1c-.066.192-1.39 3.335-1.39 3.335s.43-3.383.466-3.58l.027-.101a.475.475 0 01.584-.347l-.007.01z" fill="#F6A31B"/>
    <path fill-rule="evenodd" clip-rule="evenodd" d="M17.023 5.835a.765.765 0 01.764.764v.166c0 .167-.764 2.568-.764 2.568s-.74-2.429-.764-2.568c-.024-.139 0-.16 0-.166a.763.763 0 01.764-.764zM19.7 7.012a.667.667 0 01.473.819l-.025.149c-.055.125-1.275 2.182-1.275 2.182s-.028-2.39 0-2.526l.038-.142a.666.666 0 01.82-.472l-.031-.01zM21.78 8.77a.476.476 0 01.173.652l-.052.09c-.08.111-1.62 1.85-1.62 1.85s.737-2.204.793-2.342l.052-.09a.476.476 0 01.653-.174v.014z" fill="#F29229"/>
    <path fill-rule="evenodd" clip-rule="evenodd" d="M4.987 29.019a.954.954 0 010-1.35l.149-.146c.1-.059 2.084-.746 2.084-.746s-.694 1.995-.747 2.082l-.145.15a.955.955 0 01-1.352 0l.01.01z" fill="#E64123"/>
    <path fill-rule="evenodd" clip-rule="evenodd" d="M22.282 11.744a.474.474 0 010 .673l-.073.073c-.07.049-1.373.694-1.373.694s.65-1.301.695-1.37l.073-.073a.475.475 0 01.674 0l.004.003z" fill="#EF7F26"/>
    <path fill-rule="evenodd" clip-rule="evenodd" d="M2.279 25.5a.953.953 0 01.347-1.302l.181-.104c.153-.055 2.946-.6 2.946-.6s-1.869 2.144-1.994 2.248l-.18.104a.957.957 0 01-1.304-.347h.004z" fill="#E84D22"/>
    <path fill-rule="evenodd" clip-rule="evenodd" d="M.576 21.4a.953.953 0 01.674-1.17l.201-.052c.202-.024 3.693 0 3.693 0s-3.012 1.76-3.2 1.839l-.208.056a.956.956 0 01-1.17-.674h.01z" fill="#EA5E22"/>
    <path fill-rule="evenodd" clip-rule="evenodd" d="M0 17a.953.953 0 01.955-.955h.209c.226.028 4.231.954 4.231.954s-4.005.923-4.231.951H.955A.956.956 0 010 17z" fill="#ED6E24"/>
    <path fill-rule="evenodd" clip-rule="evenodd" d="M1.738 12.902a.954.954 0 011.17-.673l.202.056c.198.083 3.408 1.897 3.408 1.897s-3.69-.03-3.905-.059l-.201-.052a.955.955 0 01-.674-1.169z" fill="#EF7F26"/>
    <path fill-rule="evenodd" clip-rule="evenodd" d="M4.263 9.642a.955.955 0 011.303-.347l.18.104c.15.121 2.474 2.526 2.474 2.526s-3.245-.823-3.426-.875l-.18-.104a.954.954 0 01-.348-1.3l-.003-.004zM7.34 7.33a.955.955 0 011.352 0l.146.15c.1.142 1.5 2.845 1.5 2.845S7.633 8.937 7.49 8.826l-.15-.152a.954.954 0 010-1.35v.007zM10.642 5.96a.957.957 0 011.303.347l.104.18c.052.15.57 2.89.57 2.89s-2.12-1.817-2.224-1.939l-.104-.18a.953.953 0 01.348-1.301l.003.003zM13.927 5.467a.86.86 0 011.042.608l.049.18c0 .153-.14 2.8-.14 2.8s-1.455-2.22-1.521-2.356l-.049-.18a.856.856 0 01.608-1.041l.01-.01z" fill="#F29229"/>
    <path fill-rule="evenodd" clip-rule="evenodd" d="M7.99 30.876a.953.953 0 011.142-.935.956.956 0 01.696 1.3.954.954 0 01-1.558.31.954.954 0 01-.28-.675z" fill="#E53524"/>
    <path fill-rule="evenodd" clip-rule="evenodd" d="M17.022 26.94a.764.764 0 01-.764-.764v-.166c.024-.302.764-5.388.764-5.388s.737 5.086.76 5.398v.167a.763.763 0 01-.763.763l.003-.01z" fill="#F29229"/>
    <path fill-rule="evenodd" clip-rule="evenodd" d="M14.83 25.163a.665.665 0 01-.473-.819l.038-.142c.08-.212 1.695-3.733 1.695-3.733s-.368 3.868-.406 4.094l-.038.142a.666.666 0 01-.82.472l.003-.014z" fill="#F6A31B"/>
    <path fill-rule="evenodd" clip-rule="evenodd" d="M13.687 22.766a.573.573 0 01-.208-.78l.062-.108c.084-.111 1.717-1.829 1.717-1.829s-.667 2.273-.726 2.401l-.063.108a.573.573 0 01-.782.208z" fill="#F9B311"/>
    <path fill-rule="evenodd" clip-rule="evenodd" d="M13.355 20.66a.476.476 0 010-.673l.073-.073c.055-.034 1.132-.454 1.132-.454s-.424 1.075-.455 1.131l-.073.073a.476.476 0 01-.674 0l-.003-.004z" fill="#FCC30D"/>
    <path fill-rule="evenodd" clip-rule="evenodd" d="M34.046 17a.953.953 0 01-.955.954h-.209C32.657 17.922 28.94 17 28.94 17s3.717-.927 3.942-.955h.209a.956.956 0 01.955.954z" fill="#E53824"/>
    <path fill-rule="evenodd" clip-rule="evenodd" d="M29.56 24.23a.955.955 0 01-1.302.346l-.18-.104c-.449-.291-7.786-5.589-7.786-5.589s8.261 3.699 8.74 3.938l.181.104a.954.954 0 01.348 1.301v.004z" fill="#E84D22"/>
    <path fill-rule="evenodd" clip-rule="evenodd" d="M26.291 26.256a.958.958 0 01-1.351 0l-.146-.15c-.306-.346-5.135-6.477-5.135-6.477s6.139 4.826 6.483 5.132l.15.145a.956.956 0 010 1.35z" fill="#EA5E22"/>
    <path fill-rule="evenodd" clip-rule="evenodd" d="M23.02 27.373a.957.957 0 01-1.304-.347l-.104-.18c-.173-.347-2.744-6.655-2.744-6.655s4.172 5.367 4.408 5.7l.105.181a.953.953 0 01-.348 1.301h-.014z" fill="#ED6E24"/>
    <path fill-rule="evenodd" clip-rule="evenodd" d="M19.876 27.64a.86.86 0 01-1.043-.608l-.072-.18c-.066-.347-.806-6.321-.806-6.321s2.348 5.55 2.466 5.877l.049.18a.856.856 0 01-.608 1.041l.014.01z" fill="#EF7F26"/>
    <path fill-rule="evenodd" clip-rule="evenodd" d="M32.329 21.094a.954.954 0 01-1.171.673l-.202-.055c-.347-.129-6.375-2.692-6.375-2.692s6.49.78 6.869.85l.201.052a.955.955 0 01.674 1.169l.004.003z" fill="#E64123"/>
    <path fill-rule="evenodd" clip-rule="evenodd" d="M17.022 34a.956.956 0 01-.955-.955v-.208c.028-.322.955-5.696.955-5.696s.924 5.374.956 5.693v.208a.952.952 0 01-.956.957z" fill="#FDE002"/>
    <path fill-rule="evenodd" clip-rule="evenodd" d="M17.023 9.423a.477.477 0 01.476.475v.104c0 .194-.476 3.438-.476 3.438s-.462-3.243-.476-3.438v-.104a.475.475 0 01.476-.475z" fill="#F6A31B"/>
    <path fill-rule="evenodd" clip-rule="evenodd" d="M12.615 33.42a.955.955 0 01-.674-1.154l.056-.202c.132-.378 2.779-6.647 2.779-6.647s-.879 6.734-.938 7.13l-.052.2a.954.954 0 01-1.171.674zM9.637 29.771a.954.954 0 01-.347-1.3l.104-.181c.212-.31 4.169-5.319 4.169-5.319s-2.363 5.933-2.522 6.27l-.105.18a.956.956 0 01-1.302.347l.003.003zM7.296 26.714a.954.954 0 010-1.35l.149-.145c.306-.264 5.746-4.392 5.746-4.392s-4.158 5.447-4.412 5.748l-.146.15a.956.956 0 01-1.337-.01zM5.843 23.442a.953.953 0 01.348-1.3l.18-.105c.403-.197 7.425-3.181 7.425-3.181s-6.094 4.583-6.47 4.833l-.18.104a.957.957 0 01-1.303-.347v-.004zM5.266 20.143a.953.953 0 01.674-1.17l.201-.051c.403-.077 7.296-.968 7.296-.968s-6.424 2.674-6.81 2.81l-.2.055a.956.956 0 01-1.172-.673l.01-.003zM5.56 17a.953.953 0 01.955-.955h.209c.358.028 6.625.954 6.625.954s-6.253.923-6.639.955h-.208A.956.956 0 015.56 17zM6.629 14.225a.954.954 0 011.17-.694l.202.055c.313.115 5.496 2.457 5.496 2.457s-5.66-.545-5.99-.604l-.211-.052a.955.955 0 01-.667-1.162z" fill="#FBEA09"/>
    <path fill-rule="evenodd" clip-rule="evenodd" d="M8.337 11.983a.857.857 0 011.175-.316l.163.094c.247.174 4.214 3.42 4.214 3.42s-4.801-1.807-5.076-1.935l-.163-.094a.857.857 0 01-.313-1.169z" fill="#FDE002"/>
    <path fill-rule="evenodd" clip-rule="evenodd" d="M31.762 25.5a.573.573 0 01-.782.208l-.107-.062a94.945 94.945 0 01-1.258-1.388s1.737.347 1.831.395l.108.063a.573.573 0 01.208.78v.004z" fill="#F6A31B"/>
    <path fill-rule="evenodd" clip-rule="evenodd" d="M10.422 10.408a.765.765 0 011.08 0l.118.118c.174.209 2.856 3.931 2.856 3.931s-3.728-2.678-3.936-2.852l-.118-.125a.763.763 0 010-1.072z" fill="#FDD205"/>
    <path fill-rule="evenodd" clip-rule="evenodd" d="M29.057 29.018a.666.666 0 01-.945 0l-.104-.104c-.104-.132-1.643-2.585-1.643-2.585s2.452 1.537 2.588 1.641l.104.104a.665.665 0 010 .944z" fill="#F9B311"/>
    <path fill-rule="evenodd" clip-rule="evenodd" d="M12.665 9.468a.668.668 0 01.913.243l.073.128c.101.222 1.57 4.039 1.57 4.039s-2.588-3.175-2.716-3.373l-.073-.125a.666.666 0 01.243-.912h-.01zM25.535 31.72a.765.765 0 01-1.042-.277l-.084-.146c-.09-.204-1.316-3.816-1.316-3.816s2.508 2.862 2.64 3.04l.083.145a.762.762 0 01-.277 1.04l-.004.015z" fill="#FCC30D"/>
    <path fill-rule="evenodd" clip-rule="evenodd" d="M14.914 9.145a.574.574 0 01.695.406l.031.121c.038.216.448 3.876.448 3.876s-1.48-3.376-1.553-3.58l-.031-.122a.572.572 0 01.407-.694l.003-.007z" fill="#F9B311"/>
    <path fill-rule="evenodd" clip-rule="evenodd" d="M21.427 33.42a.86.86 0 01-1.042-.607l-.048-.18c-.046-.264-.407-4.833-.407-4.833s1.956 4.135 2.057 4.388l.049.181a.856.856 0 01-.609 1.04v.011z" fill="#FDD205"/>
    <path fill-rule="evenodd" clip-rule="evenodd" d="M32.53 21.274a.475.475 0 11.137.34.475.475 0 01-.14-.337l.004-.003z" fill="#F29229"/>
    <path fill-rule="evenodd" clip-rule="evenodd" d="M19.14 12.722a.572.572 0 01.978-.404.571.571 0 01-.405.977.573.573 0 01-.573-.573z" fill="#80CFF4"/>
    <path fill-rule="evenodd" clip-rule="evenodd" d="M18.837 10.234a.476.476 0 01.348.583l-.028.1c-.056.153-1.21 2.662-1.21 2.662s.261-2.748.286-2.908l.027-.1a.475.475 0 01.584-.347l-.007.01z" fill="#F29229"/>
    <path fill-rule="evenodd" clip-rule="evenodd" d="M20.845 16.455c.206-.601.287-1.239.236-1.873a.046.046 0 00-.023-.035.045.045 0 00-.043 0 1.848 1.848 0 01-1.59-.087.045.045 0 00-.065.006.045.045 0 00-.01.033c0 .012.006.023.015.03l1.39 1.937c.003.008.009.015.016.02a.045.045 0 00.067-.02l.007-.01z" fill="#E53524"/>
    <path d="M56.002 22.78a.872.872 0 01-.543.827.852.852 0 01-.347.061.935.935 0 01-.507-.153.858.858 0 01-.347-.416l-4.159-10.262-4.27 10.262a.983.983 0 01-.347.416.893.893 0 01-.497.153.852.852 0 01-.65-.274.915.915 0 01-.256-.649c.005-.14.035-.28.09-.41l4.985-11.927a.902.902 0 01.872-.607.866.866 0 01.872.607l5.013 11.952c.056.133.087.276.09.42zM66.1 19.22a.814.814 0 01-.587.223h-6.757c.107.787.511 1.504 1.13 2.005a3.613 3.613 0 003.397.569 3.32 3.32 0 00.952-.479c.167-.13.375-.199.587-.194a.765.765 0 01.535.177.778.778 0 01.32.603.642.642 0 01-.285.535c-.452.345-.96.609-1.501.78a5.438 5.438 0 01-4.329-.33c-.752-.399-1.377-1-1.806-1.734a4.965 4.965 0 01-.65-2.54 5.246 5.246 0 01.615-2.546 4.433 4.433 0 011.706-1.759 4.869 4.869 0 012.477-.652c.83-.02 1.65.191 2.366.61a3.985 3.985 0 011.528 1.686c.369.777.552 1.629.535 2.488a.74.74 0 01-.233.559zM59.8 16.123a3.187 3.187 0 00-1.022 1.902h5.906a3.145 3.145 0 00-.89-1.902 2.61 2.61 0 00-1.903-.694 3.077 3.077 0 00-2.091.694zM74.38 14.603a2.307 2.307 0 011.008 1.998c0 1.374-1.127 2.31-3.38 2.807a5.912 5.912 0 00-1.904.649 1.06 1.06 0 00-.552.895.967.967 0 00.524.888c.485.23 1.02.334 1.557.302 1.255 0 2.12-.255 2.595-.764.174-.21.423-.343.695-.37.19.01.372.084.514.21a.774.774 0 01.302.587.815.815 0 01-.267.587 4.373 4.373 0 01-1.654.974 6.537 6.537 0 01-2.206.372 5.498 5.498 0 01-2.008-.347 3.228 3.228 0 01-1.39-.968 2.282 2.282 0 01.48-3.293 7.075 7.075 0 012.862-1.075 4.174 4.174 0 001.62-.57 1.098 1.098 0 00.475-.919.905.905 0 00-.542-.825 2.781 2.781 0 00-1.34-.292c-.427 0-.85.07-1.255.205a2.78 2.78 0 00-1.004.558c-.115.116-.25.209-.4.275-.13.06-.272.094-.416.097a.456.456 0 01-.285-.07.893.893 0 01-.33-.319.759.759 0 01-.115-.392.663.663 0 01.177-.461 3.696 3.696 0 011.512-1.041 5.587 5.587 0 012.14-.423 4.393 4.393 0 012.588.725zM86.504 19.22a.813.813 0 01-.587.223h-6.764c.107.787.51 1.505 1.129 2.005a3.613 3.613 0 003.398.57c.34-.108.662-.27.951-.48.168-.13.375-.199.588-.194a.765.765 0 01.535.177.779.779 0 01.32.604.64.64 0 01-.286.534c-.451.345-.959.609-1.5.78a5.438 5.438 0 01-4.33-.329c-.751-.4-1.377-1-1.806-1.735a4.963 4.963 0 01-.65-2.54 5.242 5.242 0 01.616-2.546 4.433 4.433 0 011.705-1.759 4.869 4.869 0 012.477-.652 4.475 4.475 0 012.366.604 3.985 3.985 0 011.529 1.686c.369.776.552 1.628.535 2.487a.742.742 0 01-.226.566zm-6.302-3.097a3.187 3.187 0 00-1.021 1.9h5.906a3.145 3.145 0 00-.89-1.9 2.61 2.61 0 00-1.904-.694 3.077 3.077 0 00-2.101.694h.01zM97.851 14.203a.909.909 0 01.24.656v7.903a.904.904 0 01-.24.656.837.837 0 01-.632.25.885.885 0 01-.845-.555.88.88 0 01-.062-.35v-3.335H90.82v3.337a.894.894 0 01-.25.65.872.872 0 01-.657.256.839.839 0 01-.629-.253.907.907 0 01-.24-.656V14.86a.908.908 0 01.24-.656.838.838 0 01.632-.25.854.854 0 01.907.906v2.966h5.496V14.86a.87.87 0 01.257-.656.896.896 0 01.65-.25.837.837 0 01.625.25zM108.217 14.516a4.547 4.547 0 011.737 1.734 5.12 5.12 0 01.632 2.557v3.848a5.3 5.3 0 01-.622 2.557 4.62 4.62 0 01-1.737 1.821c-.773.45-1.655.68-2.55.666a5.64 5.64 0 01-2.383-.506 4.982 4.982 0 01-1.852-1.447.802.802 0 01-.194-.496.775.775 0 01.372-.638.88.88 0 011.226.212c.317.412.733.738 1.209.95a3.98 3.98 0 001.654.33 3.067 3.067 0 001.58-.417 3.016 3.016 0 001.14-1.225 4.08 4.08 0 00.427-1.925v-.874a4.11 4.11 0 01-1.459 1.526 3.864 3.864 0 01-2.046.552 4.456 4.456 0 01-2.356-.632 4.318 4.318 0 01-1.619-1.734 5.456 5.456 0 01-.576-2.54 5.16 5.16 0 01.622-2.557 4.452 4.452 0 011.737-1.734 5.092 5.092 0 012.543-.667 5.012 5.012 0 012.515.639zm-.889 7.199a2.95 2.95 0 001.118-1.18c.273-.53.41-1.118.4-1.714a3.666 3.666 0 00-.4-1.734 2.936 2.936 0 00-1.118-1.19 3.32 3.32 0 00-3.256 0c-.48.284-.871.696-1.129 1.19a3.598 3.598 0 00-.41 1.734 3.54 3.54 0 00.41 1.714c.26.49.651.898 1.129 1.18a3.321 3.321 0 003.256 0zM120.182 14.533a4.784 4.784 0 011.758 1.773c.436.764.66 1.631.649 2.512v3.962a.905.905 0 01-.906.905.905.905 0 01-.907-.905v-.656a4.482 4.482 0 01-5.753.978 4.478 4.478 0 01-1.636-1.766 5.276 5.276 0 01-.594-2.511c-.012-.882.21-1.75.642-2.52a4.675 4.675 0 011.769-1.776 4.923 4.923 0 012.497-.652 4.838 4.838 0 012.481.656zm-.872 7.175a3.072 3.072 0 001.129-1.19 3.496 3.496 0 00.41-1.697 3.558 3.558 0 00-.41-1.703 3.135 3.135 0 00-1.918-1.523 3.13 3.13 0 00-2.428.326c-.481.29-.874.703-1.14 1.197a3.501 3.501 0 00-.417 1.703 3.452 3.452 0 00.417 1.697c.267.49.66.902 1.14 1.19a3.19 3.19 0 003.217 0z" fill="#E53824"/>
</svg>
